Coordinates
version=1
nRows=17
nColumns=40
inDegrees=yes

Units are S.I. units (second, meters, Newtons, ...)
Angles are in degrees.

endheader
time	pelvis_tilt	pelvis_list	pelvis_rotation	pelvis_tx	pelvis_ty	pelvis_tz	hip_flexion_r	hip_adduction_r	hip_rotation_r	knee_angle_r	knee_angle_r_beta	ankle_angle_r	subtalar_angle_r	mtp_angle_r	hip_flexion_l	hip_adduction_l	hip_rotation_l	knee_angle_l	knee_angle_l_beta	ankle_angle_l	subtalar_angle_l	mtp_angle_l	lumbar_extension	lumbar_bending	lumbar_rotation	arm_flex_r	arm_add_r	arm_rot_r	elbow_flex_r	pro_sup_r	wrist_flex_r	wrist_dev_r	arm_flex_l	arm_add_l	arm_rot_l	elbow_flex_l	pro_sup_l	wrist_flex_l	wrist_dev_l
      4.43692857	     -7.75625455	     -7.56449012	      1.60566058	      1.01075738	      0.91198014	      0.48165868	     -1.34258147	      6.75130567	    -19.20166782	      7.14790379	      7.14790379	     17.51893211	     12.62881299	     -2.01018187	     35.76056471	    -10.72357796	     -5.07402936	     18.33947658	     18.33947658	      1.26422301	     -9.64768981	      8.90672064	    -10.38746004	      8.92325172	      6.23675180	     49.95534766	    -12.06602453	      4.11478536	    104.17947263	     44.06581797	      0.00000000	      0.00000000	    -23.22317307	     -8.43508613	     -4.14776599	     27.08898120	     46.45400240	      0.00000000	      0.00000000
      4.44885714	     -7.95860009	     -7.47988421	      1.45678582	      1.01262904	      0.91079932	      0.47944111	     -1.49001839	      6.34656461	    -19.04635656	      7.87124655	      7.87124655	     17.97211922	     12.48362147	     -2.02244140	     35.55153872	    -10.45216611	     -4.99353364	     18.94490889	     18.94490889	      0.48211571	    -10.24565559	      8.30396803	    -10.06572384	      8.79100282	      5.86639432	     50.25360284	    -11.61798360	      4.15226917	    105.77966728	     44.03521580	      0.00000000	      0.00000000	    -23.42672307	     -8.18884839	     -3.98109095	     26.91721812	     46.41762829	      0.00000000	      0.00000000
      4.46078571	     -8.07767325	     -7.30014211	      1.29551970	      1.01451155	      0.91006136	      0.47708706	     -1.67128952	      5.79807489	    -18.92622288	      8.70471560	      8.70471560	     18.37784019	     12.42053225	     -1.89311071	     35.28227705	    -10.10007173	     -4.77080127	     19.65046306	     19.65046306	     -0.36225743	    -11.20155104	      7.32238683	     -9.90402953	      8.48413035	      5.85063286	     50.07555850	    -11.89525168	      3.91543487	    107.83928761	     44.00685937	      0.00000000	      0.00000000	    -23.20520423	     -8.16003867	     -3.87527404	     26.89883748	     46.39662318	      0.00000000	      0.00000000
      4.47271429	     -8.11524135	     -7.08912497	      1.17237833	      1.01643072	      0.90973498	      0.47452312	     -2.06175840	      5.25178832	    -18.74675869	      9.26228432	      9.26228432	     18.55635163	     12.33784207	     -1.93174258	     35.05709361	     -9.77248809	     -4.59769456	     20.64046119	     20.64046119	     -0.45139169	    -11.75070084	      6.97735962	     -9.77858462	      8.19667308	      5.53539384	     50.01834817	    -11.87711815	      3.85699892	    108.68691922	     43.98858414	      0.00000000	      0.00000000	    -22.96450593	     -8.01987636	     -3.82342826	     26.91017129	     46.39068847	      0.00000000	      0.00000000
      4.48464286	     -8.33067909	     -6.85279664	      1.07050049	      1.01808862	      0.90950119	      0.47173524	     -1.90894681	      4.52025776	    -18.75561190	     10.49827321	     10.49827321	     18.92642076	     12.30742951	     -1.85467512	     34.96935242	     -9.31363745	     -4.05373542	     21.44605394	     21.44605394	     -0.77082177	    -12.88646985	      6.24615751	     -9.63548831	      7.88543139	      6.05898645	     48.92987413	    -12.88500893	      3.10649928	    112.26064050	     43.94671119	      0.00000000	      0.00000000	    -21.96109357	     -8.09061968	     -3.70836524	     26.74403334	     46.37833729	      0.00000000	      0.00000000
      4.49657143	     -8.41617885	     -6.64106920	      1.01507677	      1.01979048	      0.90968397	      0.46880196	     -1.97467877	      3.85151513	    -18.64969321	     11.53759582	     11.53759582	     18.99901074	     12.13878430	     -2.04444364	     34.89478885	     -8.94779938	     -3.69765888	     22.54942690	     22.54942690	     -0.37128175	    -13.51548029	      6.04664786	     -9.56108387	      7.64305742	      5.66826251	     48.34257430	    -12.91065118	      3.03918010	    113.44196186	     43.92353768	      0.00000000	      0.00000000	    -21.40747738	     -7.93753932	     -3.62678133	     26.77623984	     46.37119756	      0.00000000	      0.00000000
      4.50850000	     -8.49919898	     -6.31771961	      0.97720989	      1.02146101	      0.91031516	      0.46558709	     -1.99385761	      3.00330502	    -18.66731760	     12.64832775	     12.64832775	     18.88086833	     12.15243042	     -2.57009683	     34.71975159	     -8.41140158	     -3.28871579	     23.50632500	     23.50632500	      0.51708892	    -14.19421605	      7.00562788	     -9.56791657	      7.25675837	      6.14813075	     46.79774673	    -14.05801666	      2.21883126	    116.09076246	     43.91200515	      0.00000000	      0.00000000	    -20.16313870	     -8.02384708	     -3.51907908	     26.76500812	     46.36194990	      0.00000000	      0.00000000
      4.52042857	     -8.40240816	     -6.13215894	      0.99069997	      1.02329494	      0.91138067	      0.46227871	     -2.29375665	      2.35819048	    -18.51683502	     13.56576162	     13.56576162	     18.63360580	     12.00919247	     -2.74516645	     34.31578467	     -8.04092159	     -3.02671870	     24.35829649	     24.35829649	      1.23985976	    -14.66408739	      6.80681360	     -9.68389348	      7.08432016	      5.59587242	     45.79715596	    -14.12284240	      2.27217968	    116.39129813	     43.90178803	      0.00000000	      0.00000000	    -19.45868946	     -7.88605632	     -3.47534945	     27.01148015	     46.36502829	      0.00000000	      0.00000000
      4.53235714	     -8.40624812	     -5.90597758	      0.96581632	      1.02499307	      0.91238538	      0.45882424	     -2.13109489	      1.50982818	    -18.40224610	     15.16117028	     15.16117028	     18.39809813	     11.82915584	     -3.32983809	     33.97387826	     -7.60500700	     -2.77356606	     25.12763640	     25.12763640	      2.07500121	    -15.25020339	      6.94304957	     -9.69998090	      6.88460963	      5.28459303	     44.31459354	    -14.47894168	      2.23583681	    117.15320271	     43.88132335	      0.00000000	      0.00000000	    -18.64679628	     -7.82728207	     -3.50202974	     27.44116206	     46.37959576	      0.00000000	      0.00000000
      4.54428571	     -8.65326854	     -5.58044505	      0.93023545	      1.02641912	      0.91326862	      0.45509858	     -1.47631713	      0.42485374	    -18.41658696	     17.12397999	     17.12397999	     17.68010025	     11.70569385	     -5.22740058	     33.76292421	     -6.98213242	     -2.46795183	     25.65753086	     25.65753086	      3.31363953	    -15.81049176	      8.56879026	     -9.53975068	      6.59678731	      5.86749709	     42.11821892	    -15.97525110	      1.30068315	    119.35311691	     43.86211019	      0.00000000	      0.00000000	    -17.35674185	     -7.88051597	     -3.71687196	     28.50884752	     46.42214396	      0.00000000	      0.00000000
      4.55621429	     -8.66588843	     -5.40978120	      0.93013970	      1.02809356	      0.91455480	      0.45145731	     -1.15952253	     -0.40839470	    -18.20229579	     18.87639324	     18.87639324	     16.69247675	     11.27405308	     -7.07731088	     33.26598934	     -6.56518702	     -2.34685516	     26.11679756	     26.11679756	      4.48701187	    -16.05803521	      9.52707179	     -9.55783537	      6.48673667	      5.98232312	     39.91451273	    -16.77167994	      0.63797301	    119.96573179	     43.87684760	      0.00000000	      0.00000000	    -16.26393944	     -7.85120706	     -3.83179026	     29.41263199	     46.44610216	      0.00000000	      0.00000000
      4.56814286	     -8.61725161	     -5.30091409	      0.92107159	      1.02985511	      0.91595502	      0.44783957	     -0.95217288	     -1.12135391	    -17.81966410	     20.35852285	     20.35852285	     14.45817285	     10.38928284	    -11.75068189	     32.71918638	     -6.20242474	     -2.16818752	     26.64018717	     26.64018717	      6.07737720	    -16.21084507	     11.49144544	     -9.69913485	      6.42281111	      6.50640433	     37.12047092	    -17.73014445	     -0.82889079	    121.11234020	     43.92705254	      0.00000000	      0.00000000	    -15.19641201	     -7.90692213	     -4.07844189	     31.16126520	     46.47046377	      0.00000000	      0.00000000
      4.58007143	     -8.57444212	     -5.23921385	      0.89799847	      1.03151369	      0.91724452	      0.44432059	     -0.40893353	     -1.84877569	    -17.29090503	     22.41786589	     22.41786589	     12.21149794	      9.01099413	    -16.21081967	     32.03531584	     -5.92323944	     -2.16988395	     26.85175798	     26.85175798	      7.03457094	    -16.32665063	     12.00896238	     -9.73064715	      6.45982207	      6.32984357	     34.80362347	    -18.12924649	     -1.30031512	    120.55089522	     44.00389173	      0.00000000	      0.00000000	    -14.40744045	     -7.93980000	     -4.12057958	     32.73611895	     46.45577035	      0.00000000	      0.00000000
      4.59200000	     -8.55283930	     -5.24941524	      0.85689005	      1.03307940	      0.91846793	      0.44088790	      0.45894933	     -2.55047073	    -16.63559710	     25.03960677	     25.03960677	     10.43556786	      7.53681181	    -18.58850024	     31.33007452	     -5.72790044	     -2.18297642	     26.95428298	     26.95428298	      7.72048866	    -16.45060579	     11.91783523	     -9.73675074	      6.56837609	      6.31272196	     32.29732068	    -18.63813903	     -1.86514028	    119.60454974	     44.07212571	      0.00000000	      0.00000000	    -13.58134217	     -7.94878610	     -4.35091962	     34.59117062	     46.48238360	      0.00000000	      0.00000000
      4.60392857	     -8.51242829	     -5.20160359	      0.80283536	      1.03451189	      0.91960933	      0.43754996	      1.62631392	     -3.43544218	    -16.12282168	     28.25933219	     28.25933219	      8.92937151	      6.43043121	    -19.54127584	     30.55810813	     -5.51766872	     -2.37251254	     26.96219541	     26.96219541	      8.35592534	    -16.39955684	     11.66083991	     -9.77996682	      6.63467324	      6.05988202	     29.87332289	    -18.90781045	     -1.87883106	    118.29291415	     44.10877693	      0.00000000	      0.00000000	    -12.53863113	     -7.95689108	     -4.47893729	     35.70648810	     46.51206474	      0.00000000	      0.00000000
      4.61585714	     -8.49095733	     -5.34814687	      0.78068657	      1.03573021	      0.92060785	      0.43449832	      2.97292245	     -3.87872300	    -15.02257217	     31.43675947	     31.43675947	      6.29368327	      3.58710246	    -22.39309955	     29.84011725	     -5.49713644	     -2.38124935	     26.97198326	     26.97198326	      8.96019168	    -16.29997743	     11.38772394	     -9.82270304	      6.82457798	      6.11174184	     27.21194586	    -19.00384883	     -3.32263526	    116.54757437	     44.22835501	      0.00000000	      0.00000000	    -12.15119315	     -8.05893295	     -4.91637023	     39.25579287	     46.56779140	      0.00000000	      0.00000000
      4.62778571	     -8.51147687	     -5.31326626	      0.68246577	      1.03669312	      0.92136742	      0.43150439	      4.73001770	     -4.69322608	    -14.21085144	     35.29263722	     35.29263722	      4.33963713	      1.86139488	    -22.82809250	     29.15697054	     -5.34101131	     -2.59987604	     26.97262115	     26.97262115	      9.54593817	    -16.14672059	     11.04299690	     -9.81188443	      6.88498628	      6.01234373	     24.71794509	    -19.29121632	     -3.46821691	    114.46720820	     44.29360285	      0.00000000	      0.00000000	    -11.02644201	     -8.15356390	     -5.07258820	     40.75437558	     46.60379892	      0.00000000	      0.00000000
